<?xml version="1.0" standalone="no"?>
<!DOCTYPE svg PUBLIC "-//W3C//DTD SVG 20010904//EN"
 "http://www.w3.org/TR/2001/REC-SVG-20010904/DTD/svg10.dtd">
<svg version="1.0" xmlns="http://www.w3.org/2000/svg"
 width="267.000000pt" height="277.000000pt" viewBox="0 0 267.000000 277.000000"
 preserveAspectRatio="xMidYMid meet">

<g transform="translate(0.000000,277.000000) scale(0.100000,-0.100000)"
fill="#000000" stroke="none">
<path d="M1344 2273 c-32 -71 -66 -139 -75 -153 -9 -14 -59 -113 -112 -220
-52 -107 -147 -302 -211 -432 -64 -130 -116 -239 -116 -241 0 -3 28 -24 62
-48 78 -52 186 -102 297 -136 76 -24 103 -27 236 -27 157 0 192 6 355 61 41
14 109 41 150 61 41 20 76 37 78 38 5 2 -47 113 -188 401 -151 309 -155 317
-188 378 -17 33 -109 223 -197 408 -9 20 -21 37 -25 37 -4 0 -33 -57 -66 -127z"/>
<path d="M688 918 c-24 -42 -94 -185 -148 -303 -56 -122 -109 -233 -159 -333
l-52 -102 1076 0 c592 0 1075 3 1073 7 -2 5 -26 53 -52 108 -27 55 -61 127
-76 160 -15 33 -46 98 -68 145 -22 47 -64 135 -93 195 -28 61 -57 114 -63 118
-34 24 -342 -27 -566 -94 -228 -69 -262 -77 -365 -89 -82 -9 -115 -8 -184 4
-45 8 -91 22 -100 30 -10 9 -22 16 -28 16 -18 0 -115 93 -144 138 l-27 42 -24
-42z"/>
</g>
</svg>
