<?xml version="1.0" standalone="no"?>
<!DOCTYPE svg PUBLIC "-//W3C//DTD SVG 20010904//EN"
 "http://www.w3.org/TR/2001/REC-SVG-20010904/DTD/svg10.dtd">
<svg version="1.0" xmlns="http://www.w3.org/2000/svg"
 width="500.000000pt" height="500.000000pt" viewBox="0 0 500.000000 500.000000"
 preserveAspectRatio="xMidYMid meet">

<g transform="translate(0.000000,500.000000) scale(0.100000,-0.100000)"
fill="#000000" stroke="none">
<path d="M1222 2818 c-67 -138 -89 -194 -82 -203 24 -29 115 -58 180 -58 56 0
169 29 188 48 5 4 -172 378 -188 397 -3 4 -47 -78 -98 -184z"/>
<path d="M1920 2495 l0 -195 45 0 45 0 0 114 c0 163 16 196 94 196 58 0 66
-22 66 -177 l0 -133 46 0 45 0 -3 166 -3 166 -33 29 c-27 24 -41 29 -87 29
-47 0 -59 -4 -90 -31 l-35 -31 0 31 c0 30 -1 31 -45 31 l-45 0 0 -195z"/>
<path d="M2330 2683 c0 -4 34 -95 75 -202 46 -117 73 -201 69 -213 -9 -31 -50
-51 -94 -46 -38 3 -40 2 -46 -29 -3 -17 -3 -36 1 -42 10 -17 103 -13 141 5 47
22 69 65 157 299 42 110 79 208 83 218 6 16 1 18 -42 15 l-49 -3 -45 -130
c-25 -71 -50 -129 -55 -128 -4 1 -29 59 -55 130 l-46 128 -47 3 c-26 2 -47 -1
-47 -5z"/>
<path d="M2790 2495 l0 -195 45 0 45 0 0 108 c0 163 17 202 87 202 49 0 53
-12 53 -167 l0 -143 50 0 50 0 0 129 c0 115 2 131 21 155 26 33 92 37 109 7 5
-11 10 -81 10 -155 l0 -136 45 0 45 0 0 149 c0 82 -5 162 -11 180 -14 39 -54
61 -113 61 -36 0 -52 -6 -80 -30 l-34 -30 -30 30 c-26 25 -38 30 -81 30 -42 0
-56 -5 -86 -31 l-35 -31 0 31 c0 30 -1 31 -45 31 l-45 0 0 -195z"/>
<path d="M3460 2415 l0 -275 45 0 45 0 0 100 c0 55 2 100 5 100 3 0 19 -10 34
-21 38 -28 117 -29 162 -3 51 30 74 85 74 179 0 93 -21 146 -69 177 -43 27
-136 21 -169 -10 -30 -28 -37 -28 -37 3 0 23 -4 25 -45 25 l-45 0 0 -275z
m249 169 c32 -40 30 -143 -3 -180 -49 -58 -137 -24 -151 57 -8 49 1 91 26 124
29 36 99 36 128 -1z"/>
<path d="M1030 2417 c-29 -62 -54 -118 -57 -124 -4 -10 68 -13 341 -13 190 0
346 2 346 5 0 9 -93 209 -104 223 -13 18 -64 10 -219 -30 -106 -28 -121 -30
-159 -19 -23 7 -54 26 -69 42 l-26 28 -53 -112z"/>
</g>
</svg>
